<?xml version="1.0" encoding="UTF-8" standalone="no"?>
<svg width="190px" height="184px" viewBox="0 0 190 184" version="1.1" xmlns="http://www.w3.org/2000/svg" xmlns:xlink="http://www.w3.org/1999/xlink">
    <!-- Generator: Sketch 3.8.2 (29753) - http://www.bohemiancoding.com/sketch -->
    <title>Cookie</title>
    <desc>Created with Sketch.</desc>
    <defs></defs>
    <g id="Page-1" stroke="none" stroke-width="1" fill="none" fill-rule="evenodd">
        <g id="Cookie" transform="translate(1.000000, 0.000000)">
            <path d="M89.6919042,36.4125818 C89.4536509,36.9089586 101.024511,68.9175265 107.489538,97.9986173 C110.546219,111.748232 112.461531,124.843431 111.44771,133.644241 C108.289609,161.059182 43.0221912,142.417022 30.0388876,112.443353 C17.055584,82.4696835 63.0234968,-8.9134548 90.0428043,1.68698924 C117.062112,12.2874333 184.095577,53.9581443 185.850077,71.5037069 C187.604578,89.0492694 196.961263,121.216134 165.380254,113.905483 C133.799246,106.594832 107.991644,97.8220507 107.991644,97.8220507 C107.991644,97.8220507 90.0428043,35.6815167 89.6919042,36.4125818 Z" id="Path-8" stroke="#FFD70E"></path>
            <path d="M46,40 C46,40 -3.5,96.5 20.5,122.5 C44.5,148.5 81,165.5 106,143.5" id="Path-9" stroke="#FFD60E"></path>
            <path d="M40,126 C40,126 22.5,161.5 1,148.5" id="Path-10" stroke="#979797"></path>
            <path d="M62,141 C62,141 37.9526009,193.5 15.9517889,180.5 C-6.04902309,167.5 1.11403197,148 1.11403197,148" id="Path-10-Copy" stroke="#979797"></path>
        </g>
    </g>
</svg>