<?xml version="1.0" encoding="UTF-8" standalone="no"?>
<svg width="110px" height="148px" viewBox="0 0 110 148" version="1.1" xmlns="http://www.w3.org/2000/svg" xmlns:xlink="http://www.w3.org/1999/xlink">
    <!-- Generator: Sketch 3.8.2 (29753) - http://www.bohemiancoding.com/sketch -->
    <title>Kitty</title>
    <desc>Created with Sketch.</desc>
    <defs></defs>
    <g id="Page-1" stroke="none" stroke-width="1" fill="none" fill-rule="evenodd">
        <g id="Kitty" transform="translate(1.000000, 0.000000)" stroke="#FE8D8D">
            <path d="M32,7.5 C32,7.5 1,-13 15.5,17.5 C15.5,17 -18.5,60.5 15.5,72 C16.5,71.5 -1.5,118.5 5,135 C11.5,151.5 71,146 71,144.5" id="Path-12"></path>
            <path d="M59.6111111,7.5 C59.6111111,7.5 28.6111111,-13 43.1111111,17.5 C43.1111111,17 9.11111111,60.5 43.1111111,72 C44.1111111,71.5 26.1111111,118.5 32.6111111,135 C39.1111111,151.5 91,145.5 91,145.5" id="Path-12-Copy" transform="translate(59.500000, 73.661471) scale(-1, 1) translate(-59.500000, -73.661471) "></path>
            <path d="M60,7 C60,7 48.5,0.5 32,7" id="Path-14"></path>
            <path d="M88.5,39 C88.5,39 100.5,29.5 106,39.5 C106,39.5 113.5,56 100.5,58.5 C104,79 83,95 83,95" id="Path-15"></path>
        </g>
    </g>
</svg>