<?xml version="1.0" encoding="UTF-8" standalone="no"?>
<svg width="322px" height="166px" viewBox="0 0 322 166" version="1.1" xmlns="http://www.w3.org/2000/svg" xmlns:xlink="http://www.w3.org/1999/xlink">
    <!-- Generator: Sketch 3.8.2 (29753) - http://www.bohemiancoding.com/sketch -->
    <title>Megane</title>
    <desc>Created with Sketch.</desc>
    <defs></defs>
    <g id="Page-1" stroke="none" stroke-width="1" fill="none" fill-rule="evenodd">
        <g id="Megane" transform="translate(1.000000, 1.000000)" stroke="#979797">
            <path d="M67.4892396,19.7535014 L0,62.7058824 L0,71.8935574 C0,71.8935574 17.6757532,75.1092437 14.9210904,84.2969188 C12.1664275,93.4845938 21.1190818,90.7282913 21.1190818,90.7282913 C21.1190818,90.7282913 20.4304161,137.815126 43.615495,138.504202 C43.8450502,138.733894 80.3443329,151.137255 85.6241033,140.112045 C90.9038737,129.086835 94.8063128,119.89916 92.9698709,109.792717 C93.6585366,110.481793 101.004304,109.103641 101.004304,104.509804 C101.004304,99.9159664 100.086083,94.1736695 104.218077,94.1736695 C108.350072,94.1736695 121.205165,96.2408964 121.205165,96.2408964 C121.205165,96.2408964 115.007174,105.19888 118.220947,108.644258 C121.43472,112.089636 123.500717,111.859944 123.500717,111.859944 C123.500717,111.859944 118.220947,157.338936 151.047346,158.257703 C152.195122,157.568627 201.549498,170.661064 204.074605,158.487395 C204.763271,159.635854 214.863702,132.072829 213.02726,127.938375 C213.48637,129.086835 221.750359,130.005602 222.209469,126.330532 C222.66858,122.655462 222.66858,110.252101 224.275466,110.252101 C225.882353,110.252101 305.997131,39.7366947 305.997131,39.7366947 C305.997131,39.7366947 311.047346,56.0448179 310.35868,69.3669468 C309.670014,82.6890756 320,67.9887955 320,67.9887955 C320,67.9887955 313.802009,24.3473389 308.292683,26.8739496 C302.783357,29.4005602 233.457676,95.3221289 218.766141,96.4705882 C204.074605,97.6190476 178.593974,76.9467787 122.123386,90.7282913 C118.680057,92.7955182 119.139168,88.8907563 105.136298,89.5798319 C91.133429,90.2689076 64.7345768,61.0980392 19.2826399,70.745098 C19.5121951,70.5154062 69.0961263,27.7927171 95.035868,8.26890756 C103.988522,2.29691877 132.912482,34.4537815 132.912482,34.4537815 C132.912482,34.4537815 143.701578,36.0616246 143.242468,30.0896359 C142.783357,24.1176471 98.4791966,-3.44537815 92.5107604,0.459383754" id="Path-43"></path>
            <path d="M22.266858,90.7282913 C22.7317255,87.1234231 22.9018265,79.2322753 29.6126255,78.0952381 C49.412586,74.7404524 90.7790212,87.5327669 88.3787661,92.3361345 C87.9196557,92.3361345 91.3629842,99.6862745 90.4447633,107.495798" id="Path-44"></path>
            <path d="M127.862267,110.022409 C127.862267,110.022409 124.185753,101.783236 132.223816,97.6190476 C139.039905,94.0879135 154.508699,93.0818968 163.672884,93.7142857 C183.644189,95.092437 217.618364,101.294118 212.109039,116.683473" id="Path-46"></path>
        </g>
    </g>
</svg>