<?xml version="1.0" encoding="UTF-8" standalone="no"?>
<svg width="232px" height="434px" viewBox="0 0 232 434" version="1.1" xmlns="http://www.w3.org/2000/svg" xmlns:xlink="http://www.w3.org/1999/xlink">
    <!-- Generator: Sketch 3.8.2 (29753) - http://www.bohemiancoding.com/sketch -->
    <title>Rickenbacker</title>
    <desc>Created with Sketch.</desc>
    <defs></defs>
    <g id="Page-1" stroke="none" stroke-width="1" fill="none" fill-rule="evenodd">
        <g id="Rickenbacker" transform="translate(98.500000, 214.500000) rotate(-19.000000) translate(-98.500000, -214.500000) translate(14.000000, -7.000000)" stroke="#52BFFF">
            <path d="M148.550582,256.795975 C148.550582,256.795975 138.050582,296.332143 119.550582,257.795975 C101.050582,219.259806 73.2843239,255.138308 88.2843239,274.627864 C103.284324,294.117421 103.784324,293.231532 104.784324,302.97631 C105.784324,312.721088 34.5505817,446.047372 168.050582,442.946761" id="Path-16-Copy" transform="translate(126.025291, 341.842631) scale(-1, 1) translate(-126.025291, -341.842631) "></path>
            <path d="M70.5,257.347869 C70.5,257.347869 56.5177365,296.583792 38.0177365,258.229575 C19.5177365,219.875358 -10.9822635,256.02531 4.01773652,275.422845 C19.0177365,294.82038 19.5177365,293.938674 20.5177365,303.637441 C21.5177365,313.336209 -49.7160057,446.032984 83.7839943,442.947012" id="Path-16-Copy-2"></path>
            <path d="M72.499497,257.500518 L69.999497,70.0005183 C69.999497,70.0005183 57.999497,72.5005183 55.999497,70.0005183 C53.999497,67.5005183 50.499497,5.50051832 54.999497,3.50051832 C59.499497,1.50051832 101.499497,0.000518320128 102.499497,2.00051832 C103.499497,4.00051832 108.499497,65.5005183 103.499497,67.0005183 C98.499497,68.5005183 90.999497,68.5005183 90.999497,68.5005183 C90.999497,68.5005183 106.026615,216.546432 105.742316,257.55764" id="Path-18" transform="translate(79.276414, 129.306857) rotate(1.000000) translate(-79.276414, -129.306857) "></path>
        </g>
    </g>
</svg>