<?xml version="1.0" encoding="UTF-8" standalone="no"?>
<svg width="167px" height="284px" viewBox="0 0 167 284" version="1.1" xmlns="http://www.w3.org/2000/svg" xmlns:xlink="http://www.w3.org/1999/xlink">
    <!-- Generator: Sketch 3.8.2 (29753) - http://www.bohemiancoding.com/sketch -->
    <title>Sock</title>
    <desc>Created with Sketch.</desc>
    <defs></defs>
    <g id="Page-1" stroke="none" stroke-width="1" fill="none" fill-rule="evenodd">
        <g id="Sock" transform="translate(1.000000, -3.000000)" stroke="#7CEA38">
            <path d="M165.812795,42.5412126 C172.084822,35.9490577 164.21379,24.7808675 138.728222,16.7352929 C109.975131,7.65818985 82.6970952,8.72050098 75.1188052,15.3381663 C69.0190528,20.6647135 75.6820015,29.5903592 104.611142,39.7246887 C137.624685,51.2898479 159.31306,49.3726988 165.812795,42.5412126 Z" id="Path-19" transform="translate(120.454892, 29.093176) rotate(12.000000) translate(-120.454892, -29.093176) "></path>
            <path d="M77,7.5 C77,7.5 33.7379833,103.739118 5.40756966,121.42763 C-22.922844,139.116142 67.9143553,264.007757 96.2447689,281.160253 C124.575182,298.31275 170.443471,269.367912 147.959016,231.31081 C125.474561,193.253709 91.2981887,166.988949 97.5938362,149.300437 C103.889484,131.611925 164.5,49.5 164.5,49.5" id="Path-20"></path>
            <path d="M62,37 C62,37 78.8533333,81.0833333 141,83" id="Path-21"></path>
            <path d="M68,25 C68,25 85.0666667,70.0416667 148,72" id="Path-21-Copy"></path>
            <path d="M50,60 C50,60 66.2133333,101.208333 126,103" id="Path-21-Copy-3"></path>
            <path d="M15.5,112 C15.5,112 27.5,150 6.5,160.5" id="Path-25"></path>
            <path d="M153,242.5 C153,242.5 37,218.5 99.5,282.5" id="Path-26"></path>
        </g>
    </g>
</svg>